# xmcd CD database file generated by Grip 3.2.0
# 
# Track frame offsets:
#       150
#       19657
#       35990
#       52415
#       59070
# 
# Disc length: 1115 seconds
# 
# Revision: 17
# Processed by: cddbd v1.5.2PL0 Copyright (c) Steve Scherf et al.
# Submitted via: Grip 3.2.0
# 
DISCID=4d045905
DTITLE=Primus - Miscellaneous Debris
DYEAR=1992
DGENRE=Other
TTITLE0=Intruder
TTITLE1=Making Plans For Nigel
TTITLE2=Sinister Exaggerator
TTITLE3=Tippi Toes
TTITLE4=Have A Cigar
EXTD=more info - MillenniumMusicProjectFormat - SYNTAX=SongTitle{Subtitl
EXTD=e}[miscInfo](Lyricist;Composer;Date,Artist,Location,State,Country)
EXTT0=
EXTT1=
EXTT2=
EXTT3=
EXTT4=
PLAYORDER=
